<svg id="Layer_1" xmlns="http://www.w3.org/2000/svg" viewBox="0 0 6 11"><style>.st0{fill:#7A8999;}</style><path id="XMLID_2_" class="st0" d="M3.5 7.3v-.5c0-.3.1-.5.2-.7.1-.2.3-.4.7-.8.6-.4 1.1-.9 1.3-1.3.2-.4.3-.8.3-1.4 0-.8-.3-1.4-.8-1.9S4 0 3.1 0C2 0 1 .3 0 .9l.9 1.8c.8-.5 1.4-1 2.1-1 .4 0 .7.1.9.2.1.3.2.5.2.9 0 .2-.1.5-.2.7-.1.3-.4.6-.9.9-.5.4-.8.8-1 1.1-.2.4-.2.8-.2 1.2v.5h1.7zm-1.7 3.4c.2.2.5.3.9.3s.6-.1.8-.3c.2-.2.3-.5.3-.9s-.1-.7-.3-.9c-.2-.3-.4-.4-.8-.4s-.7.1-.9.3c-.2.2-.3.6-.3 1s.1.7.3.9z"/></svg>