<svg xmlns="http://www.w3.org/2000/svg" width="16" height="16" viewBox="0 0 16 16"><path fill-rule="evenodd" clip-rule="evenodd" fill="#FFF" d="M13.04 10.148c-.968 0-1.818.465-2.358 1.174l.027-.055-4.9-2.482c.065-.242.11-.49.11-.754 0-.29-.056-.567-.137-.835L10.71 4.73l-.026-.05c.54.708 1.39 1.172 2.355 1.172 1.635 0 2.96-1.31 2.96-2.926S14.675 0 13.04 0c-1.636 0-2.96 1.31-2.96 2.926 0 .288.054.56.133.823l-.008-.016L5.29 6.226l.02.044c-.54-.704-1.387-1.165-2.35-1.165C1.326 5.105 0 6.415 0 8.03s1.325 2.927 2.96 2.927c.966 0 1.815-.464 2.356-1.17l4.89 2.477.008-.02c-.08.266-.135.54-.135.83 0 1.615 1.324 2.926 2.96 2.926 1.635 0 2.96-1.31 2.96-2.926s-1.325-2.926-2.96-2.926z"/></svg>