<?xml version="1.0" encoding="utf-8"?>
<svg version="1.0" id="Layer_1" xmlns="http://www.w3.org/2000/svg" xmlns:xlink="http://www.w3.org/1999/xlink" x="0px" y="0px"
	 viewBox="0 0 249.027 129.409" enable-background="new 0 0 249.027 129.409" xml:space="preserve">
<g>
	<polygon fill-rule="evenodd" clip-rule="evenodd" fill="#CACACA" points="120.719,25.149 120.719,20.12 0,20.12 0,102.275 
		120.719,102.275 120.719,93.892 115.688,97.245 5.03,97.245 5.03,25.149 115.688,25.149 115.688,28.503 	"/>
	<polygon fill-rule="evenodd" clip-rule="evenodd" fill="#FFFFFF" points="102.275,10.06 102.275,0 18.443,0 18.443,122.395 
		102.275,122.395 102.275,108.982 97.245,112.335 97.245,117.365 23.474,117.365 23.474,5.03 97.245,5.03 97.245,13.413 	"/>
	<g>
		<path fill="#FFFFFF" d="M47.938,48.739v8.267H43.37V35.462h6.277c2.928,0,5.094,0.533,6.499,1.599
			c1.405,1.066,2.107,2.685,2.107,4.855c0,1.268-0.349,2.395-1.047,3.382c-0.697,0.987-1.685,1.761-2.962,2.321
			c3.242,4.843,5.354,7.972,6.337,9.387h-5.069l-5.143-8.267H47.938z M47.938,45.025h1.474c1.444,0,2.51-0.241,3.197-0.722
			c0.688-0.481,1.032-1.238,1.032-2.269c0-1.022-0.353-1.749-1.053-2.181c-0.704-0.432-1.792-0.648-3.266-0.648h-1.385V45.025z"/>
		<path fill="#FFFFFF" d="M75.701,57.006H63.293V35.462h12.408v3.743h-7.84v4.73h7.295v3.743h-7.295v5.556h7.84V57.006z"/>
		<path fill="#FFFFFF" d="M92.913,51.023c0,1.945-0.699,3.478-2.1,4.598c-1.398,1.12-3.347,1.68-5.843,1.68
			c-2.299,0-4.332-0.433-6.101-1.297V51.76c1.454,0.648,2.684,1.105,3.69,1.371c1.007,0.265,1.929,0.398,2.765,0.398
			c1.002,0,1.77-0.192,2.305-0.575c0.535-0.383,0.805-0.953,0.805-1.71c0-0.422-0.118-0.798-0.354-1.127
			c-0.235-0.329-0.581-0.646-1.039-0.951c-0.455-0.304-1.387-0.791-2.792-1.458c-1.316-0.619-2.304-1.213-2.962-1.783
			c-0.658-0.57-1.184-1.233-1.577-1.989c-0.393-0.756-0.589-1.641-0.589-2.653c0-1.906,0.645-3.404,1.937-4.494
			c1.292-1.091,3.078-1.636,5.357-1.636c1.12,0,2.188,0.132,3.206,0.397c1.016,0.266,2.079,0.639,3.189,1.12l-1.474,3.552
			c-1.149-0.472-2.099-0.801-2.852-0.988c-0.75-0.186-1.49-0.28-2.218-0.28c-0.864,0-1.527,0.201-1.989,0.604
			c-0.462,0.403-0.692,0.929-0.692,1.577c0,0.403,0.093,0.754,0.28,1.053c0.187,0.3,0.482,0.59,0.892,0.87
			c0.406,0.28,1.372,0.784,2.896,1.51c2.014,0.963,3.394,1.928,4.141,2.896C92.539,48.432,92.913,49.618,92.913,51.023z"/>
		<path fill="#FFFFFF" d="M111.701,42.181c0,2.319-0.725,4.092-2.174,5.32c-1.449,1.228-3.509,1.842-6.182,1.842h-1.96v7.663h-4.567
			V35.462h6.881c2.613,0,4.6,0.562,5.962,1.687C111.021,38.274,111.701,39.951,111.701,42.181z M101.386,45.6h1.504
			c1.404,0,2.456-0.277,3.153-0.833c0.697-0.555,1.046-1.363,1.046-2.424c0-1.071-0.293-1.861-0.876-2.373
			c-0.586-0.511-1.501-0.766-2.749-0.766h-2.078V45.6z"/>
		<path fill="#FFFFFF" d="M135.323,46.204c0,3.566-0.884,6.307-2.652,8.223c-1.768,1.916-4.303,2.874-7.603,2.874
			c-3.301,0-5.836-0.958-7.604-2.874c-1.768-1.916-2.652-4.667-2.652-8.252s0.886-6.324,2.661-8.215
			c1.771-1.891,4.314-2.837,7.625-2.837c3.311,0,5.844,0.953,7.596,2.859C134.447,39.887,135.323,42.628,135.323,46.204z
			 M119.6,46.204c0,2.407,0.457,4.22,1.371,5.438c0.913,1.218,2.279,1.827,4.097,1.827c3.645,0,5.467-2.422,5.467-7.265
			c0-4.853-1.812-7.279-5.438-7.279c-1.817,0-3.188,0.611-4.111,1.834C120.062,41.982,119.6,43.797,119.6,46.204z"/>
		<path fill="#FFFFFF" d="M158.901,57.006h-5.806l-9.373-16.298h-0.132c0.187,2.878,0.279,4.932,0.279,6.16v10.139h-4.082V35.462
			h5.763l9.357,16.136h0.103c-0.148-2.8-0.221-4.779-0.221-5.938V35.462h4.111V57.006z"/>
		<path fill="#FFFFFF" d="M177.041,51.023c0,1.945-0.699,3.478-2.101,4.598c-1.398,1.12-3.347,1.68-5.842,1.68
			c-2.299,0-4.332-0.433-6.101-1.297V51.76c1.454,0.648,2.684,1.105,3.69,1.371c1.007,0.265,1.929,0.398,2.764,0.398
			c1.002,0,1.77-0.192,2.306-0.575c0.535-0.383,0.804-0.953,0.804-1.71c0-0.422-0.118-0.798-0.354-1.127
			c-0.235-0.329-0.581-0.646-1.04-0.951c-0.455-0.304-1.387-0.791-2.791-1.458c-1.316-0.619-2.304-1.213-2.962-1.783
			c-0.658-0.57-1.185-1.233-1.577-1.989c-0.393-0.756-0.59-1.641-0.59-2.653c0-1.906,0.645-3.404,1.938-4.494
			c1.292-1.091,3.078-1.636,5.357-1.636c1.12,0,2.188,0.132,3.206,0.397c1.015,0.266,2.079,0.639,3.189,1.12l-1.474,3.552
			c-1.149-0.472-2.1-0.801-2.853-0.988c-0.75-0.186-1.49-0.28-2.217-0.28c-0.864,0-1.527,0.201-1.989,0.604
			c-0.462,0.403-0.692,0.929-0.692,1.577c0,0.403,0.093,0.754,0.279,1.053c0.186,0.3,0.483,0.59,0.893,0.87
			c0.406,0.28,1.372,0.784,2.894,1.51c2.015,0.963,3.395,1.928,4.142,2.896C176.668,48.432,177.041,49.618,177.041,51.023z"/>
		<path fill="#FFFFFF" d="M180.946,57.006V35.462h4.568v21.544H180.946z"/>
		<path fill="#FFFFFF" d="M203.227,35.462h4.612l-7.324,21.544h-4.98l-7.309-21.544h4.612l4.052,12.82
			c0.227,0.756,0.459,1.638,0.701,2.645c0.239,1.007,0.39,1.707,0.448,2.1c0.108-0.904,0.477-2.486,1.105-4.745L203.227,35.462z"/>
		<path fill="#FFFFFF" d="M222.959,57.006h-12.407V35.462h12.407v3.743h-7.84v4.73h7.295v3.743h-7.295v5.556h7.84V57.006z"/>
		<path fill="#FFFFFF" d="M43.37,65.641h6.705c3.056,0,5.272,0.435,6.652,1.304c1.381,0.87,2.071,2.253,2.071,4.149
			c0,1.287-0.303,2.343-0.905,3.168c-0.605,0.825-1.408,1.321-2.41,1.488v0.147c1.365,0.305,2.352,0.875,2.954,1.709
			c0.605,0.835,0.906,1.945,0.906,3.331c0,1.965-0.71,3.497-2.128,4.598c-1.421,1.1-3.349,1.65-5.785,1.65H43.37V65.641z
			 M47.938,74.173h2.652c1.238,0,2.134-0.191,2.688-0.575c0.556-0.383,0.834-1.017,0.834-1.901c0-0.825-0.304-1.417-0.906-1.776
			c-0.605-0.358-1.56-0.538-2.866-0.538h-2.402V74.173z M47.938,77.798v5.615h2.977c1.258,0,2.186-0.241,2.785-0.722
			c0.6-0.481,0.899-1.218,0.899-2.21c0-1.788-1.277-2.682-3.832-2.682H47.938z"/>
		<path fill="#FFFFFF" d="M68.215,78.919v8.267h-4.568V65.641h6.278c2.928,0,5.094,0.533,6.498,1.599
			c1.405,1.066,2.107,2.684,2.107,4.856c0,1.267-0.349,2.394-1.046,3.382c-0.697,0.987-1.686,1.761-2.962,2.321
			c3.241,4.843,5.354,7.972,6.336,9.387h-5.069l-5.143-8.267H68.215z M68.215,75.205h1.474c1.444,0,2.511-0.241,3.198-0.722
			c0.687-0.481,1.031-1.238,1.031-2.27c0-1.021-0.352-1.749-1.053-2.181c-0.704-0.432-1.791-0.648-3.265-0.648h-1.386V75.205z"/>
		<path fill="#FFFFFF" d="M95.978,87.186H83.57V65.641h12.407v3.743h-7.839v4.73h7.294v3.743h-7.294v5.556h7.839V87.186z"/>
		<path fill="#FFFFFF" d="M113.661,87.186l-1.562-5.128h-7.854l-1.562,5.128h-4.922l7.604-21.633h5.585l7.633,21.633H113.661z
			 M111.009,78.226c-1.444-4.647-2.258-7.275-2.438-7.884c-0.183-0.609-0.312-1.09-0.391-1.444
			c-0.324,1.257-1.253,4.367-2.785,9.328H111.009z"/>
		<path fill="#FFFFFF" d="M138.624,87.186h-5.186l-5.645-9.078l-1.93,1.385v7.692h-4.568V65.641h4.568v9.858l1.797-2.535
			l5.836-7.324h5.069l-7.516,9.534L138.624,87.186z"/>
		<path fill="#FFFFFF" d="M156.219,72.361c0,2.318-0.725,4.092-2.174,5.32c-1.449,1.228-3.509,1.842-6.181,1.842h-1.96v7.663h-4.568
			V65.641h6.882c2.613,0,4.599,0.562,5.961,1.688C155.538,68.453,156.219,70.131,156.219,72.361z M145.904,75.78h1.503
			c1.404,0,2.456-0.278,3.153-0.832c0.697-0.555,1.046-1.363,1.046-2.424c0-1.071-0.293-1.862-0.876-2.373
			c-0.586-0.511-1.501-0.766-2.749-0.766h-2.077V75.78z"/>
		<path fill="#FFFFFF" d="M179.841,76.384c0,3.566-0.884,6.307-2.652,8.223c-1.769,1.916-4.303,2.874-7.604,2.874
			c-3.301,0-5.836-0.958-7.604-2.874c-1.769-1.915-2.653-4.666-2.653-8.252s0.887-6.324,2.661-8.215
			c1.772-1.891,4.315-2.837,7.625-2.837c3.311,0,5.844,0.953,7.596,2.859C178.965,70.067,179.841,72.808,179.841,76.384z
			 M164.118,76.384c0,2.407,0.456,4.22,1.37,5.438c0.914,1.218,2.279,1.828,4.097,1.828c3.645,0,5.467-2.422,5.467-7.265
			c0-4.853-1.813-7.28-5.438-7.28c-1.817,0-3.187,0.612-4.111,1.835C164.579,72.162,164.118,73.977,164.118,76.384z"/>
		<path fill="#FFFFFF" d="M184.307,87.186V65.641h4.568v21.544H184.307z"/>
		<path fill="#FFFFFF" d="M213.41,87.186h-5.806l-9.372-16.298H198.1c0.187,2.878,0.279,4.932,0.279,6.16v10.139h-4.081V65.641
			h5.762l9.357,16.136h0.103c-0.148-2.8-0.221-4.779-0.221-5.938V65.641h4.111V87.186z"/>
		<path fill="#FFFFFF" d="M227.145,87.186h-4.568V69.443h-5.851v-3.802h16.269v3.802h-5.85V87.186z"/>
		<path fill="#FFFFFF" d="M249.027,81.203c0,1.945-0.699,3.478-2.101,4.598c-1.398,1.12-3.347,1.68-5.842,1.68
			c-2.299,0-4.333-0.432-6.102-1.296v-4.244c1.454,0.648,2.684,1.105,3.691,1.37c1.007,0.266,1.929,0.398,2.764,0.398
			c1.002,0,1.77-0.191,2.306-0.575c0.535-0.383,0.804-0.953,0.804-1.709c0-0.423-0.118-0.798-0.354-1.127
			c-0.236-0.329-0.582-0.646-1.04-0.951c-0.455-0.305-1.387-0.791-2.792-1.459c-1.316-0.619-2.304-1.213-2.962-1.783
			c-0.658-0.57-1.184-1.233-1.576-1.99c-0.394-0.756-0.59-1.641-0.59-2.652c0-1.906,0.645-3.404,1.936-4.495
			c1.292-1.09,3.079-1.635,5.357-1.635c1.12,0,2.188,0.132,3.206,0.397c1.016,0.266,2.08,0.639,3.189,1.12l-1.474,3.551
			c-1.149-0.471-2.099-0.8-2.852-0.987c-0.75-0.187-1.49-0.28-2.218-0.28c-0.864,0-1.527,0.201-1.989,0.604
			c-0.461,0.403-0.692,0.928-0.692,1.577c0,0.403,0.094,0.754,0.28,1.054c0.187,0.3,0.483,0.589,0.893,0.87
			c0.405,0.28,1.372,0.783,2.895,1.51c2.014,0.963,3.395,1.928,4.141,2.896C248.654,78.611,249.027,79.798,249.027,81.203z"/>
	</g>
</g>
</svg>
