<?xml version="1.0" encoding="utf-8"?>
<!-- Generator: Adobe Illustrator 16.0.0, SVG Export Plug-In . SVG Version: 6.00 Build 0)  -->
<!DOCTYPE svg PUBLIC "-//W3C//DTD SVG 1.1//EN" "http://www.w3.org/Graphics/SVG/1.1/DTD/svg11.dtd">
<svg version="1.1" id="Layer_1" xmlns="http://www.w3.org/2000/svg" xmlns:xlink="http://www.w3.org/1999/xlink" x="0px" y="0px"
	 width="16px" height="16px" viewBox="0 0 16 16" enable-background="new 0 0 16 16" xml:space="preserve">
<g>
	<g>
		<g>
			<path fill-rule="evenodd" clip-rule="evenodd" fill="#FFFFFF" d="M13.039,10.148c-0.967,0-1.817,0.465-2.357,1.174l0.027-0.055
				l-4.9-2.482c0.066-0.242,0.112-0.491,0.112-0.754c0-0.292-0.057-0.568-0.138-0.836l4.926-2.465L10.684,4.68
				c0.54,0.708,1.39,1.172,2.355,1.172c1.636,0,2.961-1.31,2.961-2.926C16,1.31,14.675,0,13.039,0c-1.635,0-2.96,1.31-2.96,2.926
				c0,0.288,0.055,0.561,0.134,0.823l-0.008-0.015L5.291,6.226l0.02,0.044C4.77,5.566,3.923,5.105,2.961,5.105
				C1.325,5.105,0,6.416,0,8.031s1.325,2.926,2.961,2.926c0.965,0,1.814-0.464,2.355-1.171l4.889,2.478l0.009-0.019
				c-0.079,0.265-0.135,0.539-0.135,0.829c0,1.615,1.325,2.926,2.96,2.926C14.675,16,16,14.689,16,13.074
				C16,11.458,14.675,10.148,13.039,10.148z"/>
		</g>
	</g>
</g>
</svg>
