<?xml version="1.0" encoding="utf-8"?>
<!-- Generator: Adobe Illustrator 19.0.0, SVG Export Plug-In . SVG Version: 6.00 Build 0)  -->
<svg version="1.1" id="Layer_1" xmlns="http://www.w3.org/2000/svg" xmlns:xlink="http://www.w3.org/1999/xlink" x="0px" y="0px"
	 viewBox="0 0 6 11" style="enable-background:new 0 0 6 11;" xml:space="preserve">
<style type="text/css">
	.st0{fill:#7A8999;}
</style>
<path id="XMLID_2_" class="st0" d="M3.5,7.3V6.8c0-0.3,0.1-0.5,0.2-0.7C3.8,5.9,4,5.7,4.4,5.3C5,4.9,5.5,4.4,5.7,4
	C5.9,3.6,6,3.2,6,2.6c0-0.8-0.3-1.4-0.8-1.9C4.7,0.2,4,0,3.1,0C2,0,1,0.3,0,0.9l0.9,1.8c0.8-0.5,1.4-1,2.1-1c0.4,0,0.7,0.1,0.9,0.2
	C4,2.2,4.1,2.4,4.1,2.8C4.1,3,4,3.3,3.9,3.5C3.8,3.8,3.5,4.1,3,4.4C2.5,4.8,2.2,5.2,2,5.5C1.8,5.9,1.8,6.3,1.8,6.7v0.5H3.5z
	 M1.8,10.7C2,10.9,2.3,11,2.7,11c0.4,0,0.6-0.1,0.8-0.3c0.2-0.2,0.3-0.5,0.3-0.9c0-0.4-0.1-0.7-0.3-0.9C3.3,8.6,3.1,8.5,2.7,8.5
	C2.3,8.5,2,8.6,1.8,8.8C1.6,9,1.5,9.4,1.5,9.8C1.5,10.2,1.6,10.5,1.8,10.7z"/>
</svg>
